<svg xmlns="http://www.w3.org/2000/svg" width="1000" height="600" viewBox="0 0 1000 600" data-palette="59e656-6ae7aa-c9f6ac-d3ddc0a70d89" role="img" aria-labelledby="integrations-dark-title integrations-dark-desc"><title id="integrations-dark-title">kinecard integration routes</title><desc id="integrations-dark-desc">Supported input and output routes</desc><defs><linearGradient id="brand" gradientUnits="userSpaceOnUse" x2="1000" y2="600"><stop stop-color="#59e656"/><stop offset=".6" stop-color="#6ae7aa"/><stop offset="1" stop-color="#c9f6ac"/></linearGradient><radialGradient id="halo"><stop stop-color="#59e656" stop-opacity=".22"/><stop offset="1" stop-color="#050c0d" stop-opacity="0"/></radialGradient><filter id="glow"><feGaussianBlur stdDeviation="5"/></filter><pattern id="grid" width="40" height="40" patternUnits="userSpaceOnUse"><path d="M40 0H0V40" fill="none" stroke="#173c1d" stroke-opacity=".35" stroke-width=".6"/></pattern><marker id="arrow" viewBox="0 0 10 10" refX="8" refY="5" markerWidth="5" markerHeight="5" orient="auto"><path d="m1 1 7 4-7 4" fill="none" stroke="#59e656" stroke-width="1.5"/></marker></defs><style>text{font-family:Arial,"Noto Sans",sans-serif}.flow{stroke-dasharray:10 110;animation:flow 6s linear infinite}.pulse{animation:pulse 5s ease-in-out infinite}.turn{transform-box:fill-box;transform-origin:center;animation:turn 36s linear infinite}@keyframes flow{to{stroke-dashoffset:-360}}@keyframes pulse{0%,100%{opacity:.45}50%{opacity:1}}@keyframes turn{to{transform:rotate(360deg)}}@media(prefers-reduced-motion:reduce){*{animation:none!important;transform:none!important}.flow{display:none}}</style><rect width="1000" height="600" rx="16" fill="#050c0d"/><rect width="1000" height="600" rx="16" fill="url(#grid)"/><ellipse cx="630.0" cy="258.0" rx="500.0" ry="420.0" fill="url(#halo)"/><text x="44" y="44" fill="#96b9a8" font-size="13" text-anchor="start" font-weight="400">CAPABILITIES / CONNECTIONS</text><text x="44" y="84.0" fill="#f4fdee" font-size="30" text-anchor="start" font-weight="400">Supported input and output routes</text><ellipse cx="500" cy="337" rx="238" ry="176" fill="none" stroke="#173c1d"/><ellipse cx="500" cy="337" rx="193" ry="144" fill="none" stroke="#173c1d" stroke-dasharray="2 9"/><circle cx="500" cy="337" r="68" fill="#0c1717" stroke="#59e656"/><text x="500" y="348" fill="#59e656" font-size="34" text-anchor="middle" font-weight="700">KI</text><path d="M276 211H390V337H432" fill="none" stroke="#59e656" stroke-width="1.5" marker-end="url(#arrow)"/><path d="M276 211H390V337H432" class="flow" fill="none" stroke="#c9f6ac" stroke-width="2"/><rect x="40" y="156" width="236" height="112" rx="12" fill="#0c1717" stroke="#173c1d"/><text x="58" y="187.0" fill="#f4fdee" font-size="21" text-anchor="start" font-weight="400">card.yaml</text><text x="58" y="239.0" fill="#96b9a8" font-size="17" text-anchor="start" font-weight="400">Title, lines,</text><text x="58" y="262.8" fill="#96b9a8" font-size="17" text-anchor="start" font-weight="400">palette and platform</text><path d="M568 337H662V211H724" fill="none" stroke="#59e656" stroke-width="1.5" marker-end="url(#arrow)"/><path d="M568 337H662V211H724" class="flow" fill="none" stroke="#c9f6ac" stroke-width="2"/><rect x="724" y="156" width="236" height="112" rx="12" fill="#0c1717" stroke="#173c1d"/><text x="742" y="187.0" fill="#f4fdee" font-size="21" text-anchor="start" font-weight="400">HTML / CSS / JS</text><text x="742" y="239.0" fill="#96b9a8" font-size="17" text-anchor="start" font-weight="400">Editable template</text><text x="742" y="262.8" fill="#96b9a8" font-size="17" text-anchor="start" font-weight="400">source</text><path d="M276 357H390V337H432" fill="none" stroke="#59e656" stroke-width="1.5" marker-end="url(#arrow)"/><path d="M276 357H390V337H432" class="flow" fill="none" stroke="#c9f6ac" stroke-width="2"/><rect x="40" y="302" width="236" height="112" rx="12" fill="#0c1717" stroke="#173c1d"/><text x="58" y="333.0" fill="#f4fdee" font-size="21" text-anchor="start" font-weight="400">Playwright</text><text x="58" y="362.4" fill="#f4fdee" font-size="21" text-anchor="start" font-weight="400">Chromium</text><text x="58" y="385.0" fill="#96b9a8" font-size="17" text-anchor="start" font-weight="400">Time-addressed</text><text x="58" y="408.8" fill="#96b9a8" font-size="17" text-anchor="start" font-weight="400">screenshots</text><path d="M568 337H662V357H724" fill="none" stroke="#59e656" stroke-width="1.5" marker-end="url(#arrow)"/><path d="M568 337H662V357H724" class="flow" fill="none" stroke="#c9f6ac" stroke-width="2"/><rect x="724" y="302" width="236" height="112" rx="12" fill="#0c1717" stroke="#173c1d"/><text x="742" y="333.0" fill="#f4fdee" font-size="21" text-anchor="start" font-weight="400">ffmpeg</text><text x="742" y="385.0" fill="#96b9a8" font-size="17" text-anchor="start" font-weight="400">PNG sequence to MP4</text><path d="M276 503H390V337H432" fill="none" stroke="#59e656" stroke-width="1.5" marker-end="url(#arrow)"/><path d="M276 503H390V337H432" class="flow" fill="none" stroke="#c9f6ac" stroke-width="2"/><rect x="40" y="448" width="236" height="112" rx="12" fill="#0c1717" stroke="#173c1d"/><text x="58" y="479.0" fill="#f4fdee" font-size="21" text-anchor="start" font-weight="400">Noto Sans SC</text><text x="58" y="508.4" fill="#f4fdee" font-size="21" text-anchor="start" font-weight="400">subset</text><text x="58" y="531.0" fill="#96b9a8" font-size="17" text-anchor="start" font-weight="400">Bundled CJK font</text><text x="58" y="554.8" fill="#96b9a8" font-size="17" text-anchor="start" font-weight="400">assets</text></svg>
